<?xml version="1.0" encoding="UTF-8"?>
<svg version="1.1" xmlns="http://www.w3.org/2000/svg" width="500" height="500">
<path d="M0 0 C18.09370894 15.25176513 30.1836513 34.58083089 35.984375 57.515625 C36.35175781 58.94841797 36.35175781 58.94841797 36.7265625 60.41015625 C42.43383252 87.73468874 35.57333413 115.13539241 21.30908203 138.53076172 C18.75495566 142.3577148 15.86783092 145.93377192 12.984375 149.515625 C18.87287196 148.05109052 24.75848899 146.57562578 30.6418457 145.09057617 C32.63786015 144.58831583 34.63459157 144.08889489 36.63208008 143.5925293 C59.22206098 137.9747354 76.47436095 131.51108112 93.35449219 115.08496094 C95.85652183 112.67587667 98.47251405 110.41175493 101.10546875 108.1484375 C103.39128563 106.16201035 105.62173451 104.11863179 107.859375 102.078125 C109.56348746 100.55256362 111.27190245 99.03179602 112.984375 97.515625 C113.86996094 96.72800781 114.75554687 95.94039063 115.66796875 95.12890625 C116.53550781 94.39027344 117.40304687 93.65164062 118.296875 92.890625 C119.07675781 92.21773438 119.85664063 91.54484375 120.66015625 90.8515625 C122.984375 89.515625 122.984375 89.515625 125.65234375 89.6796875 C127.984375 90.515625 127.984375 90.515625 129.984375 92.515625 C130.72566713 99.122454 128.66490582 105.02806002 126.80078125 111.31640625 C126.46698959 112.46562057 126.13319794 113.6148349 125.78929138 114.7988739 C125.07831778 117.23857444 124.36271282 119.6769294 123.64282227 122.11401367 C122.57096416 125.74648802 121.51568712 129.38344625 120.46289062 133.02148438 C114.23012592 154.40656767 107.91976603 175.91801302 97.921875 195.890625 C97.36177734 197.0559375 96.80167969 198.22125 96.22460938 199.421875 C84.62705443 223.06660503 65.67229405 248.97040567 39.87890625 258.0234375 C19.19341762 264.81730485 -0.81621806 263.8586053 -20.7890625 255.40966797 C-24.43055843 253.89958401 -24.43055843 253.89958401 -28.3125 253.703125 C-31.14551003 255.05465272 -32.92250968 257.21319814 -35.015625 259.515625 C-35.69625 260.2375 -36.376875 260.959375 -37.078125 261.703125 C-42.24169996 269.19863703 -44.14977147 277.26417789 -44.22094727 286.22167969 C-44.23084686 286.99279587 -44.24074646 287.76391205 -44.25094604 288.55839539 C-44.28247578 291.10139927 -44.30728468 293.64442182 -44.33203125 296.1875 C-44.35260814 297.95298746 -44.37360481 299.71847007 -44.39500427 301.48394775 C-44.45014899 306.12648591 -44.49959175 310.76906798 -44.54785156 315.41168213 C-44.59812211 320.15079649 -44.65377917 324.88984725 -44.70898438 329.62890625 C-44.81647298 338.9244248 -44.91793856 348.21999863 -45.015625 357.515625 C-44.13582977 357.64486359 -43.25603455 357.77410217 -42.34957886 357.90725708 C-41.18862701 358.08110931 -40.02767517 358.25496155 -38.83154297 358.43408203 C-37.10966263 358.68981491 -37.10966263 358.68981491 -35.35299683 358.95071411 C-30.80190069 359.72106992 -26.50845445 360.9171562 -22.140625 362.390625 C-21.26204834 362.68670654 -20.38347168 362.98278809 -19.47827148 363.2878418 C-3.06480557 369.10217943 12.33136243 377.73785926 25.984375 388.515625 C26.50483398 388.92474121 27.02529297 389.33385742 27.56152344 389.75537109 C36.13151191 396.52241296 36.13151191 396.52241296 38.7824707 399.60961914 C41.53911836 401.9958203 42.9170463 402.01261669 46.51953125 402.01953125 C48.10411133 402.04756836 48.10411133 402.04756836 49.72070312 402.07617188 C51.3671582 402.07713867 51.3671582 402.07713867 53.046875 402.078125 C55.2253546 402.08704797 57.40382963 402.10860489 59.58203125 402.14453125 C60.54633057 402.14525635 61.51062988 402.14598145 62.50415039 402.14672852 C64.984375 402.515625 64.984375 402.515625 66.79711914 403.54858398 C68.66584778 406.64468653 68.41160102 409.84803505 68.3828125 413.359375 C68.38568268 414.12487671 68.38855286 414.89037842 68.39151001 415.67907715 C68.39355 417.29631287 68.38802463 418.9135733 68.37548828 420.53076172 C68.35943258 423.00674591 68.37533797 425.48109785 68.39453125 427.95703125 C68.39254881 429.52864944 68.3887051 431.10026661 68.3828125 432.671875 C68.38888519 433.41256226 68.39495789 434.15324951 68.4012146 434.91638184 C68.33101442 440.0446581 68.33101442 440.0446581 66.73644352 442.211146 C64.52195157 443.85991613 63.30834396 443.89144956 60.56309509 443.89314842 C59.65328919 443.90097166 58.7434833 443.90879491 57.80610752 443.91685522 C56.80524585 443.91016305 55.80438417 443.90347089 54.77319336 443.89657593 C53.71102317 443.9012559 52.64885298 443.90593587 51.55449581 443.91075766 C47.97761164 443.92277122 44.40110611 443.91322544 40.82421875 443.90380859 C38.26709773 443.90787146 35.70997847 443.91321173 33.15286255 443.91973877 C26.91777708 443.93202631 20.68283298 443.93018909 14.44774556 443.92150085 C9.38156701 443.91473294 4.31541883 443.9138037 -0.75076294 443.9170723 C-1.47108422 443.917532 -2.19140551 443.91799169 -2.93355471 443.91846532 C-4.39675292 443.91942447 -5.85995113 443.92039711 -7.32314932 443.9213831 C-21.05207257 443.92994314 -34.78093579 443.92009325 -48.50984919 443.903982 C-60.29663527 443.89057825 -72.08333271 443.89290617 -83.87011719 443.90673828 C-97.54902704 443.92278328 -111.22788423 443.92911911 -124.90680218 443.91990149 C-126.36469713 443.91894582 -127.82259209 443.9180027 -129.28048706 443.9170723 C-130.35652942 443.91637806 -130.35652942 443.91637806 -131.45431 443.91566979 C-136.51594972 443.91307665 -141.57755611 443.91745786 -146.63919067 443.92451096 C-153.44846322 443.93379048 -160.25754205 443.92720885 -167.06680679 443.90982819 C-169.57146042 443.90584868 -172.0761281 443.90702221 -174.58077621 443.91361618 C-177.98885857 443.92176389 -181.39639611 443.91159194 -184.80444336 443.89657593 C-186.30573587 443.90661418 -186.30573587 443.90661418 -187.83735752 443.91685522 C-188.74716342 443.90903197 -189.65696932 443.90120873 -190.59434509 443.89314842 C-191.381398 443.89266137 -192.16845091 443.89217431 -192.9793539 443.89167249 C-195.57908208 443.41156881 -196.45998947 442.62921276 -198.015625 440.515625 C-198.3138397 437.82231489 -198.43614161 435.36486706 -198.4140625 432.671875 C-198.41693268 431.90637329 -198.41980286 431.14087158 -198.42276001 430.35217285 C-198.4248 428.73493713 -198.41927463 427.1176767 -198.40673828 425.50048828 C-198.39068258 423.02450409 -198.40658797 420.55015215 -198.42578125 418.07421875 C-198.42379881 416.50260056 -198.4199551 414.93098339 -198.4140625 413.359375 C-198.42317154 412.24834412 -198.42317154 412.24834412 -198.4324646 411.11486816 C-198.39302752 408.23390309 -198.33393232 406.04184103 -196.82177734 403.54199219 C-194.34668166 402.13549013 -192.55837429 402.19481467 -189.71875 402.25 C-188.6771875 402.24613281 -187.635625 402.24226563 -186.5625 402.23828125 C-184.38002082 402.25638238 -182.19761036 402.29001476 -180.015625 402.33984375 C-174.17049112 402.38935692 -174.17049112 402.38935692 -168.953125 400.11474609 C-167.19294995 398.3541085 -167.19294995 398.3541085 -165.60839844 396.4140625 C-162.99933184 393.30429827 -159.76418998 391.04497588 -156.515625 388.640625 C-155.82057861 388.1252417 -155.12553223 387.6098584 -154.40942383 387.07885742 C-134.04511902 372.19946787 -110.37015778 360.04469994 -85.015625 357.515625 C-85.08490426 351.4320635 -85.17306372 345.3491631 -85.27807617 339.26611328 C-85.31115416 337.20043322 -85.33923836 335.13466649 -85.36206055 333.06884766 C-85.39592346 330.08458823 -85.44825293 327.1011109 -85.50390625 324.1171875 C-85.51349113 322.75093735 -85.51349113 322.75093735 -85.52326965 321.35708618 C-85.77287604 310.25820571 -89.19516765 300.18857357 -96.5625 291.7421875 C-98.20474685 290.11708988 -98.20474685 290.11708988 -101.015625 288.515625 C-105.26799633 288.96245912 -109.24608903 290.55476081 -113.265625 291.953125 C-134.28324507 299.08964797 -155.36827762 299.77659494 -175.89453125 290.16796875 C-182.14532826 286.90781732 -187.61995356 283.03362715 -193.015625 278.515625 C-193.68207031 277.98324219 -194.34851563 277.45085937 -195.03515625 276.90234375 C-225.36902672 251.83352378 -238.4192653 208.70432141 -249.015625 172.515625 C-249.36968414 171.30848846 -249.36968414 171.30848846 -249.730896 170.07696533 C-251.27808518 164.79338657 -252.80916094 159.50540736 -254.3237915 154.21240234 C-254.82354856 152.4671548 -255.32543459 150.72251538 -255.82952881 148.97851562 C-256.53658319 146.52571268 -257.23272333 144.07007061 -257.92578125 141.61328125 C-258.13780685 140.8832338 -258.34983246 140.15318634 -258.56828308 139.40101624 C-259.69827421 135.34291708 -260.34608668 131.72812517 -260.015625 127.515625 C-258.828125 125.640625 -258.828125 125.640625 -257.015625 124.515625 C-254.796875 124.09765625 -254.796875 124.09765625 -252.015625 124.515625 C-249.71824435 126.30705242 -247.75122707 128.03726217 -245.703125 130.078125 C-244.54366368 131.19212998 -243.38351054 132.30541539 -242.22265625 133.41796875 C-241.66787598 133.95663574 -241.1130957 134.49530273 -240.54150391 135.05029297 C-238.70943034 136.80966985 -236.81704411 138.48542017 -234.890625 140.140625 C-231.7196665 142.88343721 -228.61294467 145.68985116 -225.515625 148.515625 C-224.5771875 149.36769531 -223.63875 150.21976563 -222.671875 151.09765625 C-221.08133877 152.54551203 -219.4961088 153.99927908 -217.921875 155.46484375 C-210.7016383 162.04887107 -202.98127353 167.01123455 -193.796875 170.41796875 C-193.10670288 170.67501587 -192.41653076 170.93206299 -191.70544434 171.19689941 C-183.46073378 174.18621237 -175.00453628 176.34473631 -166.515625 178.515625 C-138.60630547 185.6529391 -111.00508717 194.79999281 -95.015625 220.515625 C-91.62195398 226.6041416 -88.2226173 232.89464811 -86.015625 239.515625 C-85.685625 220.705625 -85.355625 201.895625 -85.015625 182.515625 C-90.295625 181.195625 -95.575625 179.875625 -101.015625 178.515625 C-104.04924218 177.38234876 -106.77954316 176.31505487 -109.640625 174.890625 C-110.34098877 174.54854004 -111.04135254 174.20645508 -111.76293945 173.85400391 C-136.74919182 161.23491327 -155.30794516 139.27623445 -164.26171875 112.8359375 C-172.9285208 82.80372235 -168.91830777 53.83779205 -153.89453125 26.61328125 C-151.01397278 21.86425243 -147.65416456 17.69926412 -144.015625 13.515625 C-143.32726562 12.68289062 -142.63890625 11.85015625 -141.9296875 10.9921875 C-106.39581666 -30.69917721 -41.87974478 -32.57313483 0 0 Z M-116.015625 9.515625 C-116.91667969 10.17175781 -117.81773437 10.82789062 -118.74609375 11.50390625 C-137.73324569 26.15266804 -148.65865845 46.41792572 -152.328125 69.953125 C-154.91314311 91.79037319 -149.51909143 115.61129256 -135.74462891 133.13232422 C-132.68977442 136.79077234 -129.4012681 140.16340856 -126.015625 143.515625 C-125.23574219 144.31742188 -124.45585937 145.11921875 -123.65234375 145.9453125 C-108.27430791 160.88397589 -89.78964077 165.74575623 -69.015625 168.515625 C-69.015625 206.465625 -69.015625 244.415625 -69.015625 283.515625 C-74.015625 278.515625 -74.015625 278.515625 -76.0859375 276.3046875 C-81.95435314 270.12388471 -88.37702127 265.33492687 -96.015625 261.515625 C-96.79003906 259.64892578 -96.79003906 259.64892578 -97.53125 257.2109375 C-97.94890625 255.87820801 -97.94890625 255.87820801 -98.375 254.51855469 C-98.66890625 253.56883789 -98.9628125 252.61912109 -99.265625 251.640625 C-103.07988339 239.80450444 -107.84272252 229.98082403 -116.015625 220.515625 C-116.88960937 219.49855469 -116.88960937 219.49855469 -117.78125 218.4609375 C-132.97515798 202.05407048 -155.41155459 197.34654627 -176.26098633 192.41381836 C-192.630877 188.51540845 -211.68145517 183.84979483 -224.015625 171.515625 C-227.32245966 171.80545769 -227.32245966 171.80545769 -230.015625 173.515625 C-230.05997112 181.21673184 -227.79923635 188.2682241 -225.265625 195.453125 C-224.87511963 196.5683252 -224.48461426 197.68352539 -224.08227539 198.83251953 C-220.98282504 207.40099038 -217.38342063 215.67268199 -213.453125 223.890625 C-212.93588867 224.97593506 -212.41865234 226.06124512 -211.88574219 227.17944336 C-201.02679174 249.23859645 -185.4238181 269.46779018 -161.953125 278.578125 C-146.18362529 283.30405207 -128.43177813 281.67253724 -113.703125 274.4453125 C-102.62260031 269.08722748 -102.62260031 269.08722748 -97.77734375 270.37890625 C-94.86781956 272.19383766 -92.50493693 274.16254407 -90.015625 276.515625 C-88.92701172 277.33933594 -88.92701172 277.33933594 -87.81640625 278.1796875 C-77.76383953 285.95367243 -71.99492112 298.1431929 -70.015625 310.515625 C-69.26301804 320.28153061 -69.51496233 330.1055649 -69.67230225 339.89154053 C-69.72416138 343.46530234 -69.74643602 347.03924879 -69.77148438 350.61328125 C-69.82453636 357.58117245 -69.90946344 364.54834525 -70.015625 371.515625 C-71.12244629 371.630271 -72.22926758 371.74491699 -73.36962891 371.86303711 C-81.54300343 372.74338767 -89.48946976 373.7132085 -97.390625 376.078125 C-98.70123901 376.46556885 -98.70123901 376.46556885 -100.03833008 376.86083984 C-121.36457607 383.46388093 -144.56959949 396.10115501 -159.43481445 413.14257812 C-162.24781588 416.31549694 -163.45836779 417.40683543 -167.77734375 418.25 C-169.07285156 418.25515625 -170.36835938 418.2603125 -171.703125 418.265625 C-177.21755634 418.17047607 -177.21755634 418.17047607 -182.015625 420.515625 C-182.515625 423.015625 -182.515625 423.015625 -182.015625 425.515625 C-178.04720794 428.16123638 -174.62532446 427.7930413 -170.01928711 427.76959229 C-168.62204234 427.77427226 -168.62204234 427.77427226 -167.1965704 427.77904677 C-164.06197295 427.78705122 -160.92756778 427.78069358 -157.79296875 427.77441406 C-155.55111578 427.77712284 -153.30926371 427.78068313 -151.06741333 427.78503418 C-144.96838842 427.79417395 -138.86943095 427.79060738 -132.77040482 427.78427601 C-126.39763452 427.77922423 -120.02487013 427.78390517 -113.65209961 427.78704834 C-102.26247761 427.79092389 -90.87288995 427.78469554 -79.48327482 427.77452967 C-69.15192057 427.7655939 -58.82061125 427.76714587 -48.48925781 427.77636719 C-36.49796267 427.78706505 -24.50669484 427.791057 -12.51539326 427.78514266 C-6.16551445 427.78201922 0.18433337 427.78162386 6.53421021 427.78821564 C12.50297259 427.7939786 18.47164983 427.79001147 24.44040298 427.77842712 C26.63544701 427.77577491 28.83049817 427.77655514 31.0255394 427.78095245 C34.01313651 427.7863872 37.00045775 427.77959897 39.98803711 427.76959229 C40.86438844 427.77405373 41.74073977 427.77851517 42.64364719 427.78311181 C47.60911919 427.7577173 47.60911919 427.7577173 51.984375 425.515625 C52.484375 423.015625 52.484375 423.015625 51.984375 420.515625 C48.30350147 418.06170931 45.54081912 418.28759741 41.296875 418.390625 C40.2440332 418.40416016 40.2440332 418.40416016 39.16992188 418.41796875 C37.44125975 418.44148796 35.71277355 418.47735787 33.984375 418.515625 C33.984375 417.855625 33.984375 417.195625 33.984375 416.515625 C32.60813156 415.04463813 32.60813156 415.04463813 30.734375 413.515625 C29.99960937 412.89429688 29.26484375 412.27296875 28.5078125 411.6328125 C27.67507813 410.93414062 26.84234375 410.23546875 25.984375 409.515625 C25.08976563 408.73445313 24.19515625 407.95328125 23.2734375 407.1484375 C1.38146556 388.30842947 -25.68110766 374.54574814 -54.73461914 371.98168945 C-55.72393936 371.8937764 -56.71325958 371.80586334 -57.7325592 371.71528625 C-58.86267677 371.61645393 -58.86267677 371.61645393 -60.015625 371.515625 C-60.00070574 358.70156545 -59.95891304 345.88789515 -59.88353443 333.07404041 C-59.84935562 327.12295887 -59.82416859 321.17213158 -59.82006836 315.22094727 C-59.81576593 309.46945752 -59.78714192 303.71854044 -59.74219322 297.96722984 C-59.72928028 295.78142326 -59.72488833 293.59554794 -59.72947121 291.40970802 C-59.7576278 273.89020952 -57.69766177 260.50604511 -45.703125 246.890625 C-34.66253159 237.13382152 -34.66253159 237.13382152 -30.015625 235.515625 C-25.33416866 235.83803935 -21.61950312 237.43659166 -17.390625 239.390625 C-0.87744246 246.77260067 16.75076161 249.22683568 33.98486328 242.765625 C44.36761192 238.46003593 52.23957718 232.57393038 59.984375 224.515625 C60.71011719 223.78601563 61.43585938 223.05640625 62.18359375 222.3046875 C77.59083959 206.01962215 86.4745104 184.25699692 93.984375 163.515625 C94.3561084 162.49194824 94.7278418 161.46827148 95.11083984 160.41357422 C96.18226956 157.41537173 97.21589308 154.40718006 98.234375 151.390625 C98.55865479 150.47273193 98.88293457 149.55483887 99.21704102 148.60913086 C100.98553929 143.48921508 100.98553929 143.48921508 99.65625 138.3984375 C99.10453125 137.77710938 98.5528125 137.15578125 97.984375 136.515625 C94.33684246 136.74359578 92.30248617 137.91243188 89.546875 140.140625 C73.48720431 152.59506349 52.39297641 156.36846926 33.06787109 160.89257812 C11.76428045 166.00764782 -8.25520377 174.99783647 -20.50390625 193.94921875 C-24.13070104 200.10633549 -27.40120666 206.12231394 -29.3359375 213.03515625 C-33.2606704 226.96332814 -33.2606704 226.96332814 -39.265625 230.578125 C-40.21050781 231.05121094 -41.15539062 231.52429688 -42.12890625 232.01171875 C-49.00685854 235.59495506 -54.23447006 241.53918133 -59.015625 247.515625 C-59.345625 221.115625 -59.675625 194.715625 -60.015625 167.515625 C-57.045625 167.515625 -54.075625 167.515625 -51.015625 167.515625 C-28.77164187 163.80829448 -8.71175157 151.32984368 4.984375 133.515625 C18.7059517 113.91494831 24.79337024 91.23349822 21.48046875 67.4296875 C17.34872442 44.52801894 5.28384642 23.95045857 -13.515625 10.015625 C-44.51530483 -10.76176777 -85.13943249 -13.20812821 -116.015625 9.515625 Z M-37.078125 179.453125 C-38.34785156 179.81277344 -39.61757813 180.17242187 -40.92578125 180.54296875 C-43.8586934 181.20464074 -43.8586934 181.20464074 -45.015625 182.515625 C-45.10300145 184.36932111 -45.12260653 186.22630041 -45.11328125 188.08203125 C-45.11005859 189.20673828 -45.10683594 190.33144531 -45.10351562 191.49023438 C-45.09513672 192.67423828 -45.08675781 193.85824219 -45.078125 195.078125 C-45.07361328 196.26599609 -45.06910156 197.45386719 -45.06445312 198.67773438 C-45.05262175 201.62374726 -45.03613787 204.56966181 -45.015625 207.515625 C-42.7777457 204.15880605 -41.08556203 200.63466837 -39.328125 197.015625 C-35.97659757 190.194864 -32.28480166 183.81266057 -28.015625 177.515625 C-31.18682513 177.515625 -34.03922734 178.58442689 -37.078125 179.453125 Z " fill="#92E0EC" transform="translate(315.015625,39.484375)"/>
<path d="M0 0 C15.46228865 13.16110617 25.25062246 31.39325297 27.89453125 51.5625 C29.51237212 74.37574745 24.04257207 95.07011953 8.89453125 112.5625 C8.2603125 113.38621094 7.62609375 114.20992187 6.97265625 115.05859375 C-5.17127377 129.6906598 -24.58648231 137.12570629 -42.97265625 139.28515625 C-63.33452046 141.08776518 -83.22037441 135.21231757 -99.35546875 122.625 C-100.95126194 121.28553895 -102.53568256 119.93234785 -104.10546875 118.5625 C-104.72035156 118.04300781 -105.33523437 117.52351562 -105.96875 116.98828125 C-119.91210991 104.26296198 -128.01490766 84.10203846 -129.10546875 65.5625 C-129.16734375 64.5415625 -129.16734375 64.5415625 -129.23046875 63.5 C-129.82286943 43.35837696 -122.92406465 24.44084583 -109.73046875 9.3125 C-108.20581464 7.71277803 -106.66417319 6.12906345 -105.10546875 4.5625 C-104.36941406 3.79164062 -103.63335937 3.02078125 -102.875 2.2265625 C-75.23091507 -24.90816744 -29.30414515 -23.0009894 0 0 Z M-53.10546875 -3.4375 C-55.45666274 0.08929099 -55.31990327 1.59129485 -55.23046875 5.75 C-55.20339844 7.38001953 -55.20339844 7.38001953 -55.17578125 9.04296875 C-55.15257812 9.87441406 -55.129375 10.70585938 -55.10546875 11.5625 C-56.40484375 11.68625 -56.40484375 11.68625 -57.73046875 11.8125 C-64.5251632 13.3224321 -69.74575893 17.98403895 -73.52734375 23.71875 C-77.0536928 29.97901012 -78.24078603 35.42928012 -77.10546875 42.5625 C-73.91743824 53.25177877 -64.88005389 58.66845274 -55.62109375 63.7109375 C-52.61556246 65.29385065 -49.59539926 66.8228408 -46.54296875 68.3125 C-40.51163792 71.3034873 -36.60941542 74.20325891 -33.76953125 80.4140625 C-32.65484906 84.02038723 -32.94789249 87.00129404 -34.10546875 90.5625 C-36.88414046 95.64076209 -39.59488944 98.72564023 -45.10546875 100.5625 C-52.22481549 101.2540289 -57.41842821 101.08892002 -63.10546875 96.5625 C-65.81980091 92.7477629 -67.13444881 89.80085896 -68.04296875 85.25 C-68.70848341 81.44811439 -68.70848341 81.44811439 -71.54296875 79.9375 C-74.34092109 79.23606001 -74.34092109 79.23606001 -77.10546875 81.5625 C-78.64866128 87.52951113 -76.59040656 93.00543537 -73.71484375 98.19921875 C-68.97381828 105.16116149 -63.19379803 108.59658663 -55.10546875 110.5625 C-55.14027344 111.39394531 -55.17507812 112.22539062 -55.2109375 113.08203125 C-55.23800781 114.16871094 -55.26507813 115.25539063 -55.29296875 116.375 C-55.32777344 117.45394531 -55.36257812 118.53289062 -55.3984375 119.64453125 C-55.3491945 122.55027611 -55.3491945 122.55027611 -53.7578125 124.46484375 C-52.06852902 125.83702555 -52.06852902 125.83702555 -49.48046875 125.3125 C-47.17422805 124.78504355 -47.17422805 124.78504355 -46.10546875 123.5625 C-46.03287929 121.37610547 -46.02173092 119.18749611 -46.04296875 117 C-46.05199219 115.80246094 -46.06101562 114.60492188 -46.0703125 113.37109375 C-46.08191406 112.44425781 -46.09351563 111.51742187 -46.10546875 110.5625 C-45.52539062 110.39234375 -44.9453125 110.2221875 -44.34765625 110.046875 C-35.05286789 107.1633433 -29.7240593 103.21342039 -25.10546875 94.5625 C-22.57854764 88.41250478 -22.74008412 82.7738068 -24.75390625 76.5625 C-29.71365046 64.91392645 -41.93041004 59.66805134 -52.57421875 54.3203125 C-59.0414963 50.97292764 -63.76335238 48.24673273 -67.10546875 41.5625 C-67.69653362 35.87918392 -67.37790291 31.41472997 -64.10546875 26.5625 C-60.14632503 22.71036016 -56.31397632 20.60960696 -50.7109375 20.52734375 C-45.16393572 20.86831387 -41.39891772 21.79264237 -37.10546875 25.5625 C-34.15997786 29.24436361 -33.43466496 33.03038813 -32.6328125 37.57421875 C-32.22704119 39.77572777 -32.22704119 39.77572777 -30.10546875 41.5625 C-27.60546875 41.97916667 -27.60546875 41.97916667 -25.10546875 41.5625 C-22.87456896 38.21615032 -22.88550761 36.7629471 -23.5078125 32.87890625 C-25.52912456 25.0446706 -29.39030337 19.06403786 -36.10546875 14.5625 C-39.95743777 12.29663587 -41.58925694 11.5625 -46.10546875 11.5625 C-46.08226562 10.64726563 -46.0590625 9.73203125 -46.03515625 8.7890625 C-46.01710938 7.60054687 -45.9990625 6.41203125 -45.98046875 5.1875 C-45.95726562 4.00414062 -45.9340625 2.82078125 -45.91015625 1.6015625 C-45.77680646 -1.54903817 -45.77680646 -1.54903817 -48.10546875 -3.4375 C-50.60546875 -3.85416667 -50.60546875 -3.85416667 -53.10546875 -3.4375 Z " fill="#91DFED" transform="translate(300.10546875,59.4375)"/>
<path d="M0 0 C1.52175491 1.1975569 3.06583947 2.36659485 4.61181641 3.53271484 C5.28599609 4.11666016 5.96017578 4.70060547 6.65478516 5.30224609 C6.65478516 5.96224609 6.65478516 6.62224609 6.65478516 7.30224609 C-50.10521484 7.30224609 -106.86521484 7.30224609 -165.34521484 7.30224609 C-164.26698062 4.06754342 -163.7104767 3.52498388 -161.12646484 1.51708984 C-160.45067383 0.99139404 -159.77488281 0.46569824 -159.07861328 -0.07592773 C-108.26156359 -38.39980463 -50.14054612 -39.55117245 0 0 Z " fill="#91DFED" transform="translate(329.34521484375,450.69775390625)"/>
<path d="M0 0 C-0.55738166 6.19875969 -2.49135142 11.40109702 -4.875 17.125 C-5.47066772 18.56057251 -5.47066772 18.56057251 -6.07836914 20.02514648 C-16.15820602 43.8269831 -29.05810555 69.19173468 -53.875 80.28515625 C-69.6813938 86.1494965 -86.12933854 84.46458324 -101.375 77.76953125 C-101.91125 77.51558594 -102.4475 77.26164062 -103 77 C-103 76.01 -103 75.02 -103 74 C-101.88310791 73.51756836 -101.88310791 73.51756836 -100.74365234 73.02539062 C-71.49956703 62.71219194 -71.49956703 62.71219194 -50.14453125 43.890625 C-49.830263 41.91106629 -49.830263 41.91106629 -51 40 C-53.95223221 39.73067355 -55.54915514 39.71294522 -58.0859375 41.328125 C-58.84132813 41.96234375 -59.59671875 42.5965625 -60.375 43.25 C-72.02041333 52.12194548 -85.90567923 58.34893875 -99.25 64.25 C-99.89864014 64.5375415 -100.54728027 64.82508301 -101.21557617 65.12133789 C-103.99853934 66.31069323 -105.93715657 67 -109 67 C-106.44424211 52.93092499 -98.10110907 39.93422592 -87 31 C-73.94959021 22.27866077 -59.86843995 17.72632333 -44.71481323 14.17556763 C-31.68964086 11.11069128 -12.18484125 0 0 0 Z " fill="#92DFED" transform="translate(402,193)"/>
<path d="M0 0 C4.38978634 1.41649118 8.65133217 3.04834105 12.9375 4.75 C22.42776114 8.40001399 32.21531779 10.7572279 42.05859375 13.24560547 C65.13717318 19.16466344 88.30178654 25.47433174 101.39208984 47.29150391 C109 60.63466254 109 60.63466254 109 67 C101.90594709 64.77714785 95.19540522 62.02955019 88.4375 58.9375 C87.38916992 58.45796875 86.34083984 57.9784375 85.26074219 57.484375 C75.5902487 52.96772404 66.16565322 47.84902935 57.75 41.23046875 C55.43056788 39.59961804 53.76858431 39.76928464 51 40 C50.67 41.65 50.34 43.3 50 45 C65.158845 58.1241007 84.58479061 66.45278304 103 74 C103 74.99 103 75.98 103 77 C100.77236012 77.81690177 98.5430514 78.62861872 96.3125 79.4375 C95.68666016 79.66759766 95.06082031 79.89769531 94.41601562 80.13476562 C82.18861792 84.55199307 66.7585955 85.16528823 54.58984375 80.25 C24.6153929 65.78269341 11.32027293 34.95728685 0.65161133 5.21044922 C0 3 0 3 0 0 Z " fill="#91E0EC" transform="translate(98,228)"/>
<path d="M0 0 C1 2 1 2 0.0625 5.125 C-0.288125 6.07375 -0.63875 7.0225 -1 8 C-1.99 8 -2.98 8 -4 8 C-5.175625 9.2375 -5.175625 9.2375 -6.375 10.5 C-9 13 -9 13 -11.8125 13.3125 C-12.534375 13.209375 -13.25625 13.10625 -14 13 C-12.85742169 11.85742169 -11.71452423 10.7151613 -10.5703125 9.57421875 C-9.43498808 8.43607014 -8.30550131 7.29208825 -7.1796875 6.14453125 C-6.25542969 5.20673828 -6.25542969 5.20673828 -5.3125 4.25 C-4.44044922 3.36054688 -4.44044922 3.36054688 -3.55078125 2.453125 C-2 1 -2 1 0 0 Z " fill="#A0E0E6" transform="translate(431,135)"/>
<path d="M0 0 C3.93736123 -0.08696177 7.87447628 -0.14037835 11.8125 -0.1875 C13.49182617 -0.22520508 13.49182617 -0.22520508 15.20507812 -0.26367188 C16.27822266 -0.27333984 17.35136719 -0.28300781 18.45703125 -0.29296875 C19.9416687 -0.31653442 19.9416687 -0.31653442 21.45629883 -0.34057617 C24 0 24 0 25.828125 1.390625 C27.97633712 4.34083632 27.17354527 7.47124616 27 11 C25.4375 9.75 25.4375 9.75 24 8 C24.3125 5.8125 24.3125 5.8125 25 4 C24.34 4 23.68 4 23 4 C23 3.01 23 2.02 23 1 C15.41 1 7.82 1 0 1 C0 0.67 0 0.34 0 0 Z " fill="#9DDDE1" transform="translate(356,442)"/>
<path d="M0 0 C5.94 0 11.88 0 18 0 C18 0.66 18 1.32 18 2 C14.7 2.66 11.4 3.32 8 4 C8 3.34 8 2.68 8 2 C5.69 2 3.38 2 1 2 C0.67 1.34 0.34 0.68 0 0 Z " fill="#A5DAE2" transform="translate(162,320)"/>
<path d="M0 0 C5.19644079 1.59890486 10.06612142 3.74138003 15 6 C11.90279155 6.87840996 10.09354597 6.99435406 7 6 C7 5.34 7 4.68 7 4 C6.01 4.33 5.02 4.66 4 5 C4 6.98 4 8.96 4 11 C1.6870518 8.6870518 1.50419025 7.52095125 0.875 4.375 C0.70742187 3.55773437 0.53984375 2.74046875 0.3671875 1.8984375 C0.24601562 1.27195313 0.12484375 0.64546875 0 0 Z " fill="#9BDEE2" transform="translate(98,228)"/>
<path d="M0 0 C0 0.99 0 1.98 0 3 C-1.40454099 4.20389228 -2.81806736 5.39935399 -4.28125 6.53125 C-6.70369719 8.60134123 -8.56959043 11.02828135 -10.5078125 13.546875 C-12.27794727 15.27067116 -13.59251304 15.60736264 -16 16 C-11.17917294 10.03739811 -5.77505724 5.03320206 0 0 Z " fill="#A2DEEA" transform="translate(205,55)"/>
<path d="M0 0 C0.99 0.33 1.98 0.66 3 1 C1.68 4.3 0.36 7.6 -1 11 C-1.33 11 -1.66 11 -2 11 C-2.96891192 5.62694301 -2.96891192 5.62694301 -3 3 C-1.5625 1 -1.5625 1 0 0 Z " fill="#9AE0E1" transform="translate(286,245)"/>
<path d="M0 0 C0.8125 1.6875 0.8125 1.6875 1 4 C-1.86510127 7.45497507 -4.95807676 10.03365897 -9 12 C-9.66 11.67 -10.32 11.34 -11 11 C-10.37351562 10.45730469 -9.74703125 9.91460937 -9.1015625 9.35546875 C-8.28429687 8.64003906 -7.46703125 7.92460937 -6.625 7.1875 C-5.40683594 6.12595703 -5.40683594 6.12595703 -4.1640625 5.04296875 C-1.83816812 3.00018747 -1.83816812 3.00018747 0 0 Z " fill="#A4E4E8" transform="translate(316,176)"/>
<path d="M0 0 C0.33 1.32 0.66 2.64 1 4 C0.195625 4.28875 -0.60875 4.5775 -1.4375 4.875 C-4.1326468 5.73262568 -4.1326468 5.73262568 -5 8 C-5.99 8 -6.98 8 -8 8 C-8 7.34 -8 6.68 -8 6 C-6.25 4.4921875 -6.25 4.4921875 -4 2.875 C-3.2575 2.33617187 -2.515 1.79734375 -1.75 1.2421875 C-1.1725 0.83226562 -0.595 0.42234375 0 0 Z " fill="#9BE2E8" transform="translate(173,449)"/>
<path d="M0 0 C1.32 0.66 2.64 1.32 4 2 C2.35 4.31 0.7 6.62 -1 9 C-2.1875 7.3125 -2.1875 7.3125 -3 5 C-1.625 2.25 -1.625 2.25 0 0 Z " fill="#A2DEE9" transform="translate(333,175)"/>
<path d="M0 0 C0.99 0 1.98 0 3 0 C3.33 2.64 3.66 5.28 4 8 C2.68 7.67 1.36 7.34 0 7 C0 4.69 0 2.38 0 0 Z " fill="#A3D8E3" transform="translate(220,144)"/>
<path d="M0 0 C0.33 0.99 0.66 1.98 1 3 C0.01 4.485 0.01 4.485 -1 6 C-1.309375 7.010625 -1.61875 8.02125 -1.9375 9.0625 C-3 12 -3 12 -6 14 C-4.45941767 8.98491285 -2.97068161 4.3852919 0 0 Z " fill="#A6E4EA" transform="translate(182,80)"/>
<path d="M0 0 C3.63 0.33 7.26 0.66 11 1 C11 1.33 11 1.66 11 2 C9.9275 2.12375 8.855 2.2475 7.75 2.375 C4.62136385 2.89643936 2.66519576 3.40088254 0 5 C0 3.35 0 1.7 0 0 Z " fill="#A6DAE7" transform="translate(256,17)"/>
<path d="M0 0 C0.99 0.33 1.98 0.66 3 1 C1.37660195 2.70884005 -0.29319053 4.37446717 -2 6 C-2.66 6 -3.32 6 -4 6 C-3.6875 4.125 -3.6875 4.125 -3 2 C-2.01 1.34 -1.02 0.68 0 0 Z " fill="#9FDBEB" transform="translate(260,154)"/>
<path d="M0 0 C0.66 0.33 1.32 0.66 2 1 C-1.3 3.64 -4.6 6.28 -8 9 C-8 8.01 -8 7.02 -8 6 C-5.45600033 3.67721769 -3.09376059 1.54688029 0 0 Z " fill="#9CE3E5" transform="translate(202,45)"/>
<path d="M0 0 C0 0.99 0 1.98 0 3 C-0.66 3 -1.32 3 -2 3 C-2 3.66 -2 4.32 -2 5 C-1.01 5.33 -0.02 5.66 1 6 C0.01 6.495 0.01 6.495 -1 7 C-3.625 5.5625 -3.625 5.5625 -6 4 C-3.94766315 1.7522025 -2.99332739 0.9977758 0 0 Z " fill="#A1E3EE" transform="translate(304,265)"/>
<path d="M0 0 C1.98 0 3.96 0 6 0 C6 2.31 6 4.62 6 7 C1.125 2.25 1.125 2.25 0 0 Z " fill="#A2E1EC" transform="translate(104,298)"/>
<path d="M0 0 C4.42857143 5.14285714 4.42857143 5.14285714 5 9 C3.68 8.67 2.36 8.34 1 8 C0.67 5.36 0.34 2.72 0 0 Z " fill="#99E1E4" transform="translate(171,159)"/>
<path d="M0 0 C4.875 4.75 4.875 4.75 6 7 C3.03 6.505 3.03 6.505 0 6 C0 4.02 0 2.04 0 0 Z " fill="#A8DCE6" transform="translate(330,56)"/>
<path d="M0 0 C-0.8125 1.9375 -0.8125 1.9375 -2 4 C-2.99 4.33 -3.98 4.66 -5 5 C-5.99 4.34 -6.98 3.68 -8 3 C-2.25 0 -2.25 0 0 0 Z " fill="#99DDE5" transform="translate(196,407)"/>
<path d="M0 0 C2.5 0.125 2.5 0.125 5 1 C5.66 2.32 6.32 3.64 7 5 C4.03 4.01 1.06 3.02 -2 2 C-1.34 1.34 -0.68 0.68 0 0 Z " fill="#9DDEE5" transform="translate(438,129)"/>
<path d="M0 0 C0.33 0.99 0.66 1.98 1 3 C-2.465 4.485 -2.465 4.485 -6 6 C-4.75453595 2.26360784 -3.36595047 1.81243487 0 0 Z " fill="#99E0DE" transform="translate(175,417)"/>
<path d="M0 0 C2.475 0.495 2.475 0.495 5 1 C3.35 2.65 1.7 4.3 0 6 C0 4.02 0 2.04 0 0 Z " fill="#9EDDE6" transform="translate(362,258)"/>
<path d="M0 0 C1.9375 0.6875 1.9375 0.6875 4 2 C4.75 4.625 4.75 4.625 5 7 C3.02 5.35 1.04 3.7 -1 2 C-0.67 1.34 -0.34 0.68 0 0 Z " fill="#9ADDE2" transform="translate(266,122)"/>
<path d="M0 0 C3.65316671 1.24976756 4.78065836 1.67098753 7 5 C5.35 5 3.7 5 2 5 C1.34 3.35 0.68 1.7 0 0 Z " fill="#A5E1E9" transform="translate(257,81)"/>
<path d="M0 0 C1.65 1.65 3.3 3.3 5 5 C3.68 5.33 2.36 5.66 1 6 C0.67 4.02 0.34 2.04 0 0 Z " fill="#9CDCE6" transform="translate(122,296)"/>
<path d="M0 0 C1.65 0 3.3 0 5 0 C3.84826645 2.46800047 2.95216435 4.04783565 1 6 C0.67 4.02 0.34 2.04 0 0 Z " fill="#9DE0E7" transform="translate(394,258)"/>
</svg>
